<svg width="37" height="30" viewBox="0 0 37 30" fill="none" xmlns="http://www.w3.org/2000/svg">
<path d="M23.388 18.7126C24.749 15.6517 27.531 13.4765 30.8296 12.8938L34.5339 12.2396C33.1746 10.4169 31.0269 9.25449 28.3904 8.93682C25.5247 8.59156 22.403 9.29243 19.6006 10.9104C16.7982 12.5284 14.6304 14.8814 13.4965 17.5358C12.5229 19.815 12.3997 22.0934 13.1181 24.085L17.5088 23.3095C20.1149 22.8492 22.3127 21.1307 23.388 18.7126Z" fill="#9C8E76"/>
<path d="M35.5879 14.1982L31.1972 14.9737C28.5912 15.4341 26.3934 17.1525 25.3181 19.5707C23.9571 22.6315 21.1752 24.8067 17.8765 25.3894L14.1722 26.0437C15.5315 27.8663 17.6792 29.0287 20.3157 29.3464C23.1815 29.6917 26.3031 28.9908 29.1055 27.3728C31.9079 25.7549 34.0757 23.4019 35.2096 20.7474C36.1831 18.4682 36.3063 16.1899 35.5879 14.1982Z" fill="#3F3631"/>
<path d="M9.29446 13.4778C6.51644 11.606 4.85735 8.48861 4.8563 5.13884L4.85524 1.3772C2.82428 2.39933 1.3065 4.3125 0.535925 6.85382C-0.301747 9.61607 -0.153546 12.812 0.953213 15.8528C2.05997 18.8936 4.00074 21.4371 6.41801 23.0146C7.92628 23.999 9.51208 24.5406 11.0668 24.6245C10.233 22.1761 10.3913 19.4275 11.5538 16.7062C11.6283 16.5318 11.7071 16.3587 11.789 16.1868C11.1904 15.1173 10.3438 14.1849 9.29446 13.4778Z" fill="#3F3631"/>
<path d="M18.5442 9.0813C18.5906 9.05447 18.6373 9.02842 18.6838 9.00209C17.5584 6.11607 15.6752 3.7062 13.3512 2.18947C11.2757 0.83489 9.05335 0.31791 6.96719 0.679578L6.96846 5.13815C6.96931 7.78459 8.28003 10.2474 10.4747 11.7263C11.4582 12.389 12.3006 13.2084 12.9797 14.1384C14.3661 12.1367 16.2751 10.3912 18.5442 9.0813Z" fill="#3F3631"/>
</svg>
